<svg xmlns="http://www.w3.org/2000/svg" version="1.1" xmlns:xlink="http://www.w3.org/1999/xlink" xmlns:svgjs="http://svgjs.dev/svgjs" width="2000" height="1247" viewBox="0 0 2000 1247"><g transform="matrix(1,0,0,1,-1.2121212121212466,0.504858299595071)"><svg viewBox="0 0 396 247" data-background-color="#ffffff" preserveAspectRatio="xMidYMid meet" height="1247" width="2000" xmlns="http://www.w3.org/2000/svg" xmlns:xlink="http://www.w3.org/1999/xlink"><defs></defs><g id="tight-bounds" transform="matrix(1,0,0,1,0.2400000000000091,-0.09999999999999432)"><svg viewBox="0 0 395.52 247.2" height="247.2" width="395.52"><g><svg viewBox="0 0 395.52 247.2" height="247.2" width="395.52"><rect width="395.52" height="247.2" x="0" y="0" opacity="1" fill="#ffffff" data-fill-palette-color="background"></rect><g transform="matrix(1,0,0,1,27.05430960000001,59.34296985255199)"><svg viewBox="0 0 341.41138079999996 128.514060294896" height="128.514060294896" width="341.41138079999996"><g><svg viewBox="0 0 341.41138079999996 128.514060294896" height="128.514060294896" width="341.41138079999996"><g><svg viewBox="0 0 341.41138079999996 128.514060294896" height="128.514060294896" width="341.41138079999996"><g><path d="M0 128.514v-128.514h341.411v128.514z" fill="#ff4057" stroke="transparent" stroke-width="0" rx="0%" data-fill-palette-color="tertiary"></path><path d="M4.509 124.005v-119.496h332.393v119.496z" fill="#282634" stroke="transparent" stroke-width="0" rx="0%" data-fill-palette-color="quaternary"></path><path d="M13.527 114.987v-101.46h314.357v101.46z" fill="#ff4057" stroke="transparent" stroke-width="0" data-fill-palette-color="tertiary"></path></g><g transform="matrix(1,0,0,1,27.054309599999996,27.054309599999996)"><svg viewBox="0 0 287.30276159999994 74.40544109489602" height="74.40544109489602" width="287.30276159999994"><g><svg viewBox="0 0 287.30276159999994 74.40544109489602" height="74.40544109489602" width="287.30276159999994"><g transform="matrix(1,0,0,1,0,0)"><svg width="287.30276159999994" viewBox="1.5099999904632568 -38.09000015258789 154.97000122070312 40.13999938964844" height="74.40544109489602" data-palette-color="#282634"><path d="M21.39-35.25L21.39-35.25Q21.39-33.4 20.12-31.88 18.85-30.37 17.02-29.17 15.19-27.98 13.18-27.1 11.18-26.22 9.72-25.63L9.72-25.63Q9.72-24.61 9.67-23.54 9.62-22.46 9.52-21.39L9.52-21.39Q11.08-22.17 13.04-22.85 14.99-23.54 16.75-23.54L16.75-23.54Q18.16-23.54 19.07-22.95 19.97-22.36 19.97-20.9L19.97-20.9Q19.97-19.29 18.82-18.02 17.68-16.75 16.06-15.77 14.45-14.79 12.7-14.11 10.94-13.43 9.72-13.04L9.72-13.04Q9.72-11.43 9.67-9.84 9.62-8.25 9.52-6.69L9.52-6.69Q9.47-5.91 9.35-4.74 9.23-3.56 8.86-2.47 8.5-1.37 7.81-0.56 7.13 0.24 6.05 0.24L6.05 0.24Q5.03 0.24 4.3-0.76 3.56-1.76 3.05-3.32 2.54-4.88 2.22-6.81 1.9-8.74 1.73-10.6 1.56-12.45 1.54-14.01 1.51-15.58 1.51-16.41L1.51-16.41Q1.51-17.04 1.54-18.29 1.56-19.53 1.59-21.04 1.61-22.56 1.68-24.22 1.76-25.88 1.86-27.37 1.95-28.86 2.12-30 2.29-31.15 2.54-31.69L2.54-31.69Q3.08-32.76 5.1-33.81 7.13-34.86 9.62-35.67 12.11-36.47 14.48-36.99 16.85-37.5 18.12-37.5L18.12-37.5Q18.7-37.5 19.26-37.43 19.82-37.35 20.31-37.11 20.8-36.87 21.09-36.43 21.39-35.99 21.39-35.25ZM45.46-25.68L45.46-25.68Q45.46-22.31 43.89-19.63 42.33-16.94 39.74-14.89L39.74-14.89Q40.52-13.72 41.35-12.16 42.19-10.6 42.84-8.86 43.5-7.13 43.92-5.4 44.33-3.66 44.33-2.2L44.33-2.2Q44.33-0.63 43.58 0.61 42.82 1.86 41.01 1.86L41.01 1.86Q39.5 1.86 38.4 0.39 37.3-1.07 36.45-3.1 35.59-5.13 34.89-7.23 34.18-9.33 33.54-10.6L33.54-10.6Q32.66-10.3 31.83-9.94 31-9.57 30.12-9.23L30.12-9.23Q30.08-8.15 29.95-6.27 29.83-4.39 29.42-2.54 29-0.68 28.17 0.68 27.34 2.05 25.88 2.05L25.88 2.05Q24.27 2.05 23.39 0.73 22.51-0.59 22.14-2.39 21.77-4.2 21.73-6.08 21.68-7.96 21.68-9.03L21.68-9.03Q21.68-11.33 21.77-13.55 21.87-15.77 21.87-18.07L21.87-18.07Q21.87-20.17 21.8-22.27 21.73-24.37 21.73-26.51L21.73-26.51Q21.73-27 21.73-27.76 21.73-28.52 21.8-29.32 21.87-30.13 21.97-30.86 22.07-31.59 22.31-32.03L22.31-32.03Q22.8-33.06 24.53-33.98 26.27-34.91 28.34-35.62 30.42-36.33 32.39-36.74 34.37-37.16 35.35-37.16L35.35-37.16Q37.84-37.16 39.74-36.23 41.65-35.3 42.92-33.72 44.19-32.13 44.82-30.05 45.46-27.98 45.46-25.68ZM36.42-25L36.42-25Q36.42-26.27 35.84-26.93 35.25-27.59 33.93-27.59L33.93-27.59Q32.96-27.59 31.96-27.25 30.95-26.9 30.12-26.46L30.12-26.46Q30.32-22.61 30.27-18.8L30.27-18.8Q31.3-19.14 32.37-19.68 33.44-20.21 34.35-21 35.25-21.78 35.84-22.75 36.42-23.73 36.42-25ZM58.34 1.61L58.34 1.61Q55.37 1.61 53.17 0.12 50.97-1.37 49.53-3.88 48.09-6.4 47.38-9.72 46.67-13.04 46.67-16.7L46.67-16.7Q46.67-20.12 47.43-23.63 48.19-27.15 49.75-29.98 51.31-32.81 53.71-34.62 56.1-36.43 59.42-36.43L59.42-36.43Q62.64-36.43 64.81-34.69 66.99-32.96 68.28-30.2 69.58-27.44 70.14-24.02 70.7-20.61 70.7-17.19L70.7-17.19Q70.7-13.38 69.94-9.99 69.18-6.59 67.65-4 66.11-1.42 63.79 0.1 61.47 1.61 58.34 1.61ZM58.93-25.63L58.93-25.63Q58-25.63 57.34-24.9 56.68-24.17 56.25-22.97 55.81-21.78 55.61-20.29 55.41-18.8 55.41-17.29L55.41-17.29Q55.41-15.58 55.63-13.87 55.85-12.16 56.29-10.79 56.73-9.42 57.39-8.59 58.05-7.76 58.98-7.76L58.98-7.76Q60.05-7.76 60.69-8.84 61.32-9.91 61.69-11.43 62.06-12.94 62.18-14.55 62.3-16.16 62.3-17.24L62.3-17.24Q62.3-18.55 62.13-20.02 61.96-21.48 61.57-22.73 61.18-23.97 60.54-24.8 59.91-25.63 58.93-25.63ZM89.4-34.28L89.4-34.28Q89.4-33.15 88.69-32.32 87.98-31.49 87-30.96L87-30.96Q86.13-30.42 85.2-29.81 84.27-29.2 83.49-28.44 82.71-27.69 82.22-26.76 81.73-25.83 81.73-24.66L81.73-24.66Q81.73-23.63 82.22-22.8 82.71-21.97 83.42-21.17 84.12-20.36 84.98-19.51 85.83-18.65 86.54-17.6 87.25-16.55 87.74-15.23 88.22-13.92 88.22-12.16L88.22-12.16Q88.22-10.94 87.71-9.4 87.2-7.86 86.32-6.3 85.44-4.74 84.25-3.27 83.05-1.81 81.71-0.66 80.36 0.49 78.9 1.2 77.43 1.9 76.07 1.9L76.07 1.9Q74.55 1.9 73.38 1.07 72.21 0.24 72.21-1.42L72.21-1.42Q72.21-2.54 72.75-3.49 73.28-4.44 74.06-5.32 74.85-6.2 75.8-7.03 76.75-7.86 77.53-8.69 78.31-9.52 78.85-10.42 79.39-11.33 79.39-12.35L79.39-12.35Q79.39-13.77 78.39-15.26 77.39-16.75 76.16-18.33 74.94-19.92 73.94-21.58 72.94-23.24 72.94-24.95L72.94-24.95Q72.94-27.05 74.06-29.37 75.19-31.69 76.95-33.62 78.7-35.55 80.9-36.82 83.1-38.09 85.25-38.09L85.25-38.09Q86.96-38.09 88.18-37.06 89.4-36.04 89.4-34.28ZM114.54-28.56L114.54-27.93Q114.54-23.88 114.35-19.8 114.15-15.72 113.86-11.67L113.86-11.67Q113.81-10.94 113.76-9.69 113.71-8.45 113.56-7.01 113.42-5.57 113.17-4.1 112.93-2.64 112.42-1.44 111.9-0.24 111.1 0.51 110.29 1.27 109.12 1.27L109.12 1.27Q108.1 1.27 107.29 0.83 106.48 0.39 105.95-0.32 105.41-1.03 105.12-1.93 104.82-2.83 104.82-3.81L104.82-3.81Q104.82-5.42 104.92-7.06 105.02-8.69 105.21-10.3L105.21-10.3 100.38-9.81Q100.23-8.54 100.06-6.76 99.89-4.98 99.38-3.34 98.87-1.71 97.84-0.54 96.82 0.63 95.01 0.63L95.01 0.63Q93.89 0.63 93.15 0.12 92.42-0.39 91.98-1.2 91.54-2 91.35-2.98 91.15-3.96 91.15-4.83L91.15-4.83Q91.15-7.76 91.4-10.67 91.64-13.57 91.74-16.5L91.74-16.5Q91.84-19.58 91.81-22.68 91.79-25.78 91.88-28.91L91.88-28.91Q91.93-29.93 91.96-31.3 91.98-32.67 92.3-33.86 92.62-35.06 93.37-35.89 94.13-36.72 95.64-36.72L95.64-36.72Q97.74-36.72 98.82-35.62 99.89-34.52 100.33-32.89 100.77-31.25 100.77-29.42 100.77-27.59 100.77-26.12L100.77-26.12Q100.77-24.17 100.67-22.29 100.58-20.41 100.48-18.51L100.48-18.51 105.7-19.29Q105.75-21.68 105.8-24.02 105.85-26.37 106-28.71L106-28.71Q106.04-29.83 106.09-31.1 106.14-32.37 106.48-33.45 106.83-34.52 107.63-35.23 108.44-35.94 110.05-35.94L110.05-35.94Q111.42-35.94 112.27-35.16 113.12-34.38 113.64-33.25 114.15-32.13 114.35-30.86 114.54-29.59 114.54-28.56L114.54-28.56ZM134.66-33.15L134.66-33.15Q134.66-32.23 134.24-31.49 133.83-30.76 133.14-30.25 132.46-29.74 131.63-29.39 130.8-29.05 130.02-28.91L130.02-28.91Q129.92-23.39 129.6-18.26 129.28-13.13 128.6-7.67L128.6-7.67 128.89-7.67Q129.68-7.67 130.43-7.5 131.19-7.32 131.8-6.91 132.41-6.49 132.78-5.88 133.14-5.27 133.14-4.39L133.14-4.39Q133.14-3.27 132.43-2.44 131.73-1.61 130.58-1.03 129.43-0.44 128.01-0.05 126.6 0.34 125.18 0.56 123.77 0.78 122.5 0.88 121.23 0.98 120.45 0.98L120.45 0.98Q119.86 0.98 119.01 0.93 118.15 0.88 117.39 0.63 116.64 0.39 116.1-0.1 115.56-0.59 115.56-1.42L115.56-1.42Q115.56-2.44 115.98-3.25 116.39-4.05 117.08-4.69 117.76-5.32 118.62-5.71 119.47-6.1 120.35-6.3L120.35-6.3Q120.69-8.98 120.98-11.65 121.28-14.31 121.37-17.04L121.37-17.04Q121.47-19.82 121.57-22.53 121.67-25.24 121.76-27.98L121.76-27.98Q121.42-27.93 121.13-27.91 120.84-27.88 120.59-27.88L120.59-27.88Q119.91-27.88 119.13-28.03 118.35-28.17 117.66-28.54 116.98-28.91 116.52-29.44 116.05-29.98 116.05-30.81L116.05-30.81Q116.05-32.47 117.44-33.54 118.84-34.62 120.76-35.21 122.69-35.79 124.69-36.01 126.7-36.23 127.92-36.23L127.92-36.23Q128.6-36.23 129.72-36.13 130.85-36.04 131.95-35.69 133.04-35.35 133.85-34.77 134.66-34.18 134.66-33.15ZM156.48-33.35L156.48-33.35Q156.48-32.13 155.53-31.13 154.57-30.13 153.23-29.37 151.89-28.61 150.47-28.13 149.06-27.64 148.13-27.44L148.13-27.44Q147.74-23.68 147.52-19.95 147.3-16.21 147.3-12.45L147.3-12.45Q147.3-10.45 147.4-8.5 147.49-6.54 147.49-4.59L147.49-4.59Q147.49-3.71 147.32-2.66 147.15-1.61 146.74-0.68 146.32 0.24 145.59 0.88 144.86 1.51 143.78 1.51L143.78 1.51Q142.51 1.51 141.76 0.81 141 0.1 140.59-0.93 140.17-1.95 140.02-3.1 139.88-4.25 139.88-5.18L139.88-5.18Q139.78-8.11 139.73-11.06 139.68-14.01 139.68-16.99L139.68-16.99Q139.68-19.48 139.71-21.88 139.73-24.27 139.73-26.76L139.73-26.76Q139.05-26.66 138.34-26.61 137.63-26.56 136.9-26.56L136.9-26.56Q136.31-26.56 135.36-26.68 134.41-26.81 133.53-27.12 132.65-27.44 132.02-28 131.38-28.56 131.38-29.44L131.38-29.44Q131.38-30.91 132.53-32.01 133.68-33.11 135.46-33.91 137.24-34.72 139.41-35.28 141.59-35.84 143.71-36.16 145.83-36.47 147.62-36.62 149.4-36.77 150.38-36.77L150.38-36.77Q151.3-36.77 152.35-36.69 153.4-36.62 154.33-36.28 155.26-35.94 155.87-35.25 156.48-34.57 156.48-33.35Z" opacity="1" transform="matrix(1,0,0,1,0,0)" fill="#282634" class="undefined-text-0" data-fill-palette-color="quaternary" id="text-0"></path></svg></g></svg></g></svg></g></svg></g><g></g></svg></g></svg></g></svg></g></svg><rect width="395.52" height="247.2" fill="none" stroke="none" visibility="hidden"></rect></g></svg></g></svg>